<svg xmlns="http://www.w3.org/2000/svg" xmlns:xlink="http://www.w3.org/1999/xlink" width="500" zoomAndPan="magnify" viewBox="0 0 375 374.999991" height="500" preserveAspectRatio="xMidYMid meet" version="1.0"><defs><g/><clipPath id="8a85a84e86"><path d="M 131 44.703125 L 244 44.703125 L 244 71 L 131 71 Z M 131 44.703125 " clip-rule="nonzero"/></clipPath><clipPath id="44e8abe65a"><path d="M 87.707031 80 L 151 80 L 151 107 L 87.707031 107 Z M 87.707031 80 " clip-rule="nonzero"/></clipPath><clipPath id="a69714d688"><path d="M 87.707031 80 L 287.207031 80 L 287.207031 133 L 87.707031 133 Z M 87.707031 80 " clip-rule="nonzero"/></clipPath><clipPath id="56130433d3"><path d="M 120 187 L 260 187 L 260 231.453125 L 120 231.453125 Z M 120 187 " clip-rule="nonzero"/></clipPath><clipPath id="118bd7d3b7"><path d="M 198 152 L 287.207031 152 L 287.207031 191 L 198 191 Z M 198 152 " clip-rule="nonzero"/></clipPath><clipPath id="6ea5d764a5"><path d="M 87.707031 126 L 287.207031 126 L 287.207031 179 L 87.707031 179 Z M 87.707031 126 " clip-rule="nonzero"/></clipPath><clipPath id="647d2707e7"><path d="M 297 37.265625 L 344.738281 37.265625 L 344.738281 239.015625 L 297 239.015625 Z M 297 37.265625 " clip-rule="nonzero"/></clipPath><clipPath id="082f81b2fe"><path d="M 30.257812 37.5 L 78 37.5 L 78 239.25 L 30.257812 239.25 Z M 30.257812 37.5 " clip-rule="nonzero"/></clipPath><clipPath id="eb9a84a529"><rect x="0" width="305" y="0" height="101"/></clipPath></defs><g clip-path="url(#8a85a84e86)"><path fill="#545454" d="M 144.808594 49.136719 C 149.492188 49.136719 153.300781 52.945312 153.300781 57.625 C 153.300781 62.308594 149.492188 66.117188 144.808594 66.117188 C 140.125 66.117188 136.316406 62.308594 136.316406 57.625 C 136.316406 52.945312 140.125 49.136719 144.808594 49.136719 Z M 230.183594 49.136719 C 234.867188 49.136719 238.675781 52.945312 238.675781 57.625 C 238.675781 62.308594 234.867188 66.117188 230.183594 66.117188 C 225.503906 66.117188 221.691406 62.308594 221.691406 57.625 C 221.691406 52.945312 225.503906 49.136719 230.183594 49.136719 Z M 144.808594 70.542969 C 151.175781 70.542969 156.480469 65.910156 157.53125 59.839844 L 217.460938 59.839844 C 218.515625 65.910156 223.816406 70.542969 230.183594 70.542969 C 237.308594 70.542969 243.101562 64.75 243.101562 57.625 C 243.101562 50.503906 237.308594 44.710938 230.183594 44.710938 C 223.816406 44.710938 218.515625 49.34375 217.460938 55.414062 L 157.53125 55.414062 C 156.480469 49.34375 151.175781 44.710938 144.808594 44.710938 C 137.6875 44.710938 131.890625 50.503906 131.890625 57.625 C 131.890625 64.75 137.6875 70.542969 144.808594 70.542969 " fill-opacity="1" fill-rule="nonzero"/></g><g clip-path="url(#44e8abe65a)"><path fill="#545454" d="M 100.675781 85.335938 C 105.355469 85.335938 109.164062 89.144531 109.164062 93.828125 C 109.164062 98.507812 105.355469 102.320312 100.675781 102.320312 C 95.992188 102.320312 92.179688 98.507812 92.179688 93.828125 C 92.179688 89.144531 95.992188 85.335938 100.675781 85.335938 Z M 100.675781 106.746094 C 107.042969 106.746094 112.34375 102.113281 113.398438 96.039062 L 148.050781 96.039062 C 149.273438 96.039062 150.265625 95.046875 150.265625 93.828125 C 150.265625 92.605469 149.273438 91.613281 148.050781 91.613281 L 113.398438 91.613281 C 112.34375 85.542969 107.042969 80.910156 100.675781 80.910156 C 93.550781 80.910156 87.753906 86.703125 87.753906 93.828125 C 87.753906 100.949219 93.550781 106.746094 100.675781 106.746094 " fill-opacity="1" fill-rule="nonzero"/></g><g clip-path="url(#a69714d688)"><path fill="#545454" d="M 274.320312 85.335938 C 279.003906 85.335938 282.8125 89.144531 282.8125 93.828125 C 282.8125 98.507812 279.003906 102.320312 274.320312 102.320312 C 269.640625 102.320312 265.828125 98.507812 265.828125 93.828125 C 265.828125 89.144531 269.640625 85.335938 274.320312 85.335938 Z M 89.96875 132.964844 L 163.753906 132.964844 C 164.480469 132.964844 165.160156 132.605469 165.574219 132.011719 L 190.449219 96.039062 L 261.597656 96.039062 C 262.648438 102.113281 267.953125 106.746094 274.320312 106.746094 C 281.441406 106.746094 287.238281 100.949219 287.238281 93.828125 C 287.238281 86.703125 281.441406 80.910156 274.320312 80.910156 C 267.953125 80.910156 262.648438 85.542969 261.597656 91.613281 L 189.292969 91.613281 C 188.566406 91.613281 187.882812 91.96875 187.46875 92.566406 L 162.59375 128.539062 L 89.96875 128.539062 C 88.746094 128.539062 87.753906 129.53125 87.753906 130.75 C 87.753906 131.972656 88.746094 132.964844 89.96875 132.964844 " fill-opacity="1" fill-rule="nonzero"/></g><g clip-path="url(#56130433d3)"><path fill="#545454" d="M 246.699219 227.382812 C 242.015625 227.382812 238.207031 223.570312 238.207031 218.890625 C 238.207031 214.207031 242.015625 210.398438 246.699219 210.398438 C 251.378906 210.398438 255.1875 214.207031 255.1875 218.890625 C 255.1875 223.570312 251.378906 227.382812 246.699219 227.382812 Z M 246.699219 205.972656 C 240.328125 205.972656 235.027344 210.605469 233.972656 216.675781 L 202.890625 216.675781 L 175.921875 188.472656 C 175.503906 188.035156 174.925781 187.785156 174.320312 187.785156 L 122.734375 187.785156 C 121.511719 187.785156 120.523438 188.777344 120.523438 190 C 120.523438 191.222656 121.511719 192.210938 122.734375 192.210938 L 173.375 192.210938 L 200.347656 220.417969 C 200.761719 220.855469 201.339844 221.101562 201.945312 221.101562 L 233.972656 221.101562 C 235.027344 227.175781 240.328125 231.808594 246.699219 231.808594 C 253.820312 231.808594 259.613281 226.011719 259.613281 218.890625 C 259.613281 211.765625 253.820312 205.972656 246.699219 205.972656 " fill-opacity="1" fill-rule="nonzero"/></g><g clip-path="url(#118bd7d3b7)"><path fill="#545454" d="M 274.320312 174.363281 C 269.640625 174.363281 265.828125 170.554688 265.828125 165.871094 C 265.828125 161.1875 269.640625 157.378906 274.320312 157.378906 C 279.003906 157.378906 282.8125 161.1875 282.8125 165.871094 C 282.8125 170.554688 279.003906 174.363281 274.320312 174.363281 Z M 274.320312 152.953125 C 267.953125 152.953125 262.648438 157.585938 261.597656 163.660156 L 217.445312 163.660156 C 216.746094 163.660156 216.089844 163.988281 215.667969 164.546875 L 199.074219 186.792969 C 198.347656 187.773438 198.546875 189.160156 199.527344 189.890625 C 199.925781 190.1875 200.390625 190.328125 200.847656 190.328125 C 201.523438 190.328125 202.191406 190.023438 202.625 189.441406 L 218.554688 168.085938 L 261.597656 168.085938 C 262.648438 174.152344 267.953125 178.785156 274.320312 178.785156 C 281.441406 178.785156 287.238281 172.992188 287.238281 165.871094 C 287.238281 158.75 281.441406 152.953125 274.320312 152.953125 " fill-opacity="1" fill-rule="nonzero"/></g><g clip-path="url(#6ea5d764a5)"><path fill="#545454" d="M 100.675781 174.363281 C 95.992188 174.363281 92.179688 170.554688 92.179688 165.871094 C 92.179688 161.1875 95.992188 157.378906 100.675781 157.378906 C 105.355469 157.378906 109.164062 161.1875 109.164062 165.871094 C 109.164062 170.554688 105.355469 174.363281 100.675781 174.363281 Z M 285.023438 126.734375 L 211.238281 126.734375 C 210.511719 126.734375 209.832031 127.089844 209.417969 127.6875 L 184.542969 163.660156 L 113.398438 163.660156 C 112.34375 157.585938 107.042969 152.953125 100.675781 152.953125 C 93.550781 152.953125 87.753906 158.75 87.753906 165.871094 C 87.753906 172.992188 93.550781 178.785156 100.675781 178.785156 C 107.042969 178.785156 112.34375 174.152344 113.398438 168.085938 L 185.703125 168.085938 C 186.429688 168.085938 187.109375 167.726562 187.523438 167.128906 L 212.398438 131.160156 L 285.023438 131.160156 C 286.246094 131.160156 287.238281 130.167969 287.238281 128.945312 C 287.238281 127.722656 286.246094 126.734375 285.023438 126.734375 " fill-opacity="1" fill-rule="nonzero"/></g><g clip-path="url(#647d2707e7)"><path fill="#545454" d="M 297.214844 234.140625 L 297.214844 238.332031 C 305.757812 238.492188 315.34375 238.652344 325.859375 238.8125 C 328.476562 238.855469 331.175781 238.894531 333.875 238.933594 C 335.246094 238.933594 336.617188 238.976562 338.027344 238.976562 C 339.195312 238.976562 340.363281 238.976562 341.570312 239.015625 C 342.214844 239.015625 342.859375 239.015625 343.546875 239.015625 L 344.59375 239.015625 L 344.59375 238.089844 C 344.59375 235.875 344.554688 233.65625 344.554688 231.402344 C 344.554688 229.949219 344.554688 228.5 344.554688 227.050781 C 344.554688 224.109375 344.554688 221.128906 344.554688 218.105469 C 344.59375 193.933594 344.59375 166.863281 344.632812 138.257812 C 344.59375 109.695312 344.59375 82.621094 344.554688 58.410156 C 344.554688 55.386719 344.554688 52.40625 344.554688 49.464844 C 344.554688 48.015625 344.554688 46.566406 344.554688 45.113281 C 344.554688 42.859375 344.59375 40.640625 344.59375 38.425781 L 344.59375 37.5 L 343.546875 37.5 C 342.902344 37.5 342.257812 37.5 341.570312 37.5 C 340.402344 37.5 339.234375 37.5 338.027344 37.539062 C 336.617188 37.539062 335.246094 37.582031 333.875 37.582031 C 331.136719 37.621094 328.476562 37.660156 325.859375 37.703125 C 315.386719 37.863281 305.757812 38.023438 297.214844 38.183594 L 297.214844 42.375 C 305.757812 42.535156 315.34375 42.695312 325.859375 42.859375 C 328.476562 42.898438 331.175781 42.9375 333.875 42.980469 C 335.246094 42.980469 336.617188 43.019531 338.027344 43.019531 L 338.953125 43.019531 C 338.953125 43.019531 338.953125 43.058594 338.953125 43.101562 L 338.914062 43.421875 L 338.914062 43.90625 C 338.914062 44.269531 338.914062 44.628906 338.871094 44.992188 C 338.832031 46.445312 338.792969 47.894531 338.792969 49.34375 C 338.75 52.285156 338.671875 55.265625 338.628906 58.289062 C 338.226562 82.5 338.066406 109.574219 338.066406 138.175781 C 338.066406 166.78125 338.226562 193.855469 338.628906 218.066406 C 338.671875 221.089844 338.75 224.070312 338.792969 227.011719 C 338.832031 228.460938 338.871094 229.949219 338.871094 231.359375 C 338.871094 231.722656 338.871094 232.085938 338.914062 232.449219 L 338.914062 232.933594 L 338.953125 233.253906 C 338.953125 233.292969 338.953125 233.335938 338.953125 233.335938 L 338.027344 233.335938 C 336.617188 233.335938 335.246094 233.375 333.875 233.375 C 331.136719 233.414062 328.476562 233.457031 325.859375 233.496094 C 315.34375 233.820312 305.757812 233.980469 297.214844 234.140625 Z M 297.214844 234.140625 " fill-opacity="1" fill-rule="nonzero"/></g><g clip-path="url(#082f81b2fe)"><path fill="#545454" d="M 77.777344 42.375 L 77.777344 38.183594 C 69.238281 38.023438 59.648438 37.863281 49.132812 37.703125 C 46.515625 37.660156 43.816406 37.621094 41.117188 37.582031 C 39.746094 37.582031 38.378906 37.539062 36.96875 37.539062 C 35.796875 37.539062 34.628906 37.539062 33.421875 37.5 C 32.777344 37.5 32.132812 37.5 31.449219 37.5 L 30.398438 37.5 L 30.398438 38.425781 C 30.398438 40.640625 30.441406 42.859375 30.441406 45.113281 C 30.441406 46.566406 30.441406 48.015625 30.441406 49.464844 C 30.441406 52.40625 30.441406 55.386719 30.441406 58.410156 C 30.398438 82.582031 30.398438 109.652344 30.359375 138.257812 C 30.398438 166.820312 30.398438 193.894531 30.441406 218.105469 C 30.441406 221.128906 30.441406 224.109375 30.441406 227.050781 C 30.441406 228.5 30.441406 229.949219 30.441406 231.402344 C 30.441406 233.65625 30.398438 235.875 30.398438 238.089844 L 30.398438 239.015625 L 31.449219 239.015625 C 32.09375 239.015625 32.738281 239.015625 33.421875 239.015625 C 34.589844 239.015625 35.757812 239.015625 36.96875 238.976562 C 38.378906 238.976562 39.746094 238.933594 41.117188 238.933594 C 43.855469 238.894531 46.515625 238.855469 49.132812 238.8125 C 59.609375 238.652344 69.238281 238.492188 77.777344 238.332031 L 77.777344 234.140625 C 69.238281 233.980469 59.648438 233.820312 49.132812 233.65625 C 46.515625 233.617188 43.816406 233.578125 41.117188 233.535156 C 39.746094 233.535156 38.378906 233.496094 36.96875 233.496094 L 36.039062 233.496094 C 36.039062 233.496094 36.039062 233.457031 36.039062 233.414062 L 36.082031 233.09375 L 36.082031 232.609375 C 36.082031 232.246094 36.082031 231.886719 36.121094 231.523438 C 36.160156 230.070312 36.203125 228.621094 36.203125 227.171875 C 36.242188 224.230469 36.324219 221.25 36.363281 218.226562 C 36.765625 194.015625 36.925781 166.941406 36.925781 138.339844 C 36.925781 109.734375 36.765625 82.660156 36.363281 58.449219 C 36.324219 55.425781 36.242188 52.445312 36.203125 49.503906 C 36.160156 48.054688 36.121094 46.566406 36.121094 45.15625 C 36.121094 44.792969 36.121094 44.429688 36.082031 44.066406 L 36.082031 43.582031 L 36.039062 43.261719 C 36.039062 43.222656 36.039062 43.179688 36.039062 43.179688 L 36.96875 43.179688 C 38.378906 43.179688 39.746094 43.140625 41.117188 43.140625 C 43.855469 43.101562 46.515625 43.058594 49.132812 43.019531 C 59.648438 42.695312 69.238281 42.535156 77.777344 42.375 Z M 77.777344 42.375 " fill-opacity="1" fill-rule="nonzero"/></g><g transform="matrix(1, 0, 0, 1, 35, 270)"><g clip-path="url(#eb9a84a529)"><g fill="#545454" fill-opacity="1"><g transform="translate(0.43131, 74.620374)"><g><path d="M 23.234375 -9.90625 L 19.625 0 L 0.828125 0 L 28.3125 -68.484375 L 42.109375 -68.484375 L 69.3125 0 L 50.34375 0 L 47.015625 -9.90625 Z M 28.046875 -23.78125 L 42.390625 -23.78125 L 35.359375 -47.109375 L 35.078125 -47.203125 Z M 28.046875 -23.78125 "/></g></g></g><g fill="#545454" fill-opacity="1"><g transform="translate(70.571024, 74.620374)"><g><path d="M 23.6875 -68.484375 L 23.6875 0 L 6.203125 0 L 6.203125 -68.484375 Z M 23.6875 -68.484375 "/></g></g></g><g fill="#545454" fill-opacity="1"><g transform="translate(100.459045, 74.620374)"><g><path d="M 22.953125 -22.125 L 22.953125 0 L 6.203125 0 L 6.203125 -68.484375 L 28.59375 -68.484375 C 35.570312 -68.484375 40.972656 -67.648438 44.796875 -65.984375 C 48.554688 -64.316406 51.59375 -61.585938 53.90625 -57.796875 C 56.21875 -54.003906 57.375 -49.703125 57.375 -44.890625 C 57.375 -39.398438 55.832031 -34.660156 52.75 -30.671875 C 49.664062 -26.691406 45.53125 -24.242188 40.34375 -23.328125 L 58.953125 0 L 38.96875 0 L 23.140625 -22.125 Z M 40.625 -43.875 C 40.625 -46.769531 39.617188 -49.035156 37.609375 -50.671875 C 35.609375 -52.304688 32.941406 -53.125 29.609375 -53.125 L 22.953125 -53.125 L 22.953125 -34.0625 L 29.4375 -34.0625 C 32.945312 -34.0625 35.6875 -34.894531 37.65625 -36.5625 C 39.632812 -38.226562 40.625 -40.664062 40.625 -43.875 Z M 40.625 -43.875 "/></g></g></g><g fill="#545454" fill-opacity="1"><g transform="translate(161.808274, 74.620374)"><g><path d="M 74.875 1.390625 C 71.414062 1.390625 68.234375 0.910156 65.328125 -0.046875 C 62.429688 -1.003906 60.210938 -2.316406 58.671875 -3.984375 C 55.523438 -2.128906 52.425781 -0.769531 49.375 0.09375 C 46.320312 0.957031 43.003906 1.390625 39.421875 1.390625 C 33.066406 1.390625 27.113281 -0.164062 21.5625 -3.28125 C 16.007812 -6.394531 11.566406 -10.601562 8.234375 -15.90625 C 4.898438 -21.21875 3.234375 -26.957031 3.234375 -33.125 C 3.234375 -39.789062 4.804688 -45.929688 7.953125 -51.546875 C 11.097656 -57.160156 15.429688 -61.601562 20.953125 -64.875 C 26.484375 -68.144531 32.578125 -69.78125 39.234375 -69.78125 C 46.023438 -69.78125 52.210938 -68.160156 57.796875 -64.921875 C 63.378906 -61.679688 67.773438 -57.363281 70.984375 -51.96875 C 74.191406 -46.570312 75.796875 -40.816406 75.796875 -34.703125 C 75.796875 -30.691406 75.347656 -27.097656 74.453125 -23.921875 C 73.554688 -20.742188 72.125 -17.769531 70.15625 -15 C 71.019531 -14.195312 72.082031 -13.59375 73.34375 -13.1875 C 74.601562 -12.789062 75.914062 -12.59375 77.28125 -12.59375 C 78.082031 -12.59375 78.695312 -12.617188 79.125 -12.671875 L 79.125 1.203125 C 77.644531 1.328125 76.226562 1.390625 74.875 1.390625 Z M 30.546875 -39.421875 C 34.984375 -39.421875 39.390625 -38.171875 43.765625 -35.671875 C 48.148438 -33.171875 52.222656 -29.609375 55.984375 -24.984375 C 57.523438 -27.640625 58.296875 -31.003906 58.296875 -35.078125 C 58.296875 -38.648438 57.492188 -41.898438 55.890625 -44.828125 C 54.285156 -47.765625 52.035156 -50.097656 49.140625 -51.828125 C 46.242188 -53.554688 42.941406 -54.421875 39.234375 -54.421875 C 34.546875 -54.421875 30.566406 -52.890625 27.296875 -49.828125 C 24.023438 -46.773438 21.867188 -42.566406 20.828125 -37.203125 L 20.828125 -37.109375 C 22.734375 -37.910156 24.410156 -38.492188 25.859375 -38.859375 C 27.316406 -39.234375 28.878906 -39.421875 30.546875 -39.421875 Z M 28.59375 -26.65625 C 26.800781 -26.65625 24.796875 -26.285156 22.578125 -25.546875 C 24.179688 -22.023438 26.507812 -19.210938 29.5625 -17.109375 C 32.625 -15.015625 35.847656 -13.96875 39.234375 -13.96875 C 42.328125 -13.96875 44.953125 -14.523438 47.109375 -15.640625 C 43.960938 -19.648438 40.96875 -22.488281 38.125 -24.15625 C 35.289062 -25.820312 32.113281 -26.65625 28.59375 -26.65625 Z M 28.59375 -26.65625 "/></g></g></g><g fill="#545454" fill-opacity="1"><g transform="translate(241.941533, 74.620374)"><g><path d="M 22.953125 -22.125 L 22.953125 0 L 6.203125 0 L 6.203125 -68.484375 L 28.59375 -68.484375 C 35.570312 -68.484375 40.972656 -67.648438 44.796875 -65.984375 C 48.554688 -64.316406 51.59375 -61.585938 53.90625 -57.796875 C 56.21875 -54.003906 57.375 -49.703125 57.375 -44.890625 C 57.375 -39.398438 55.832031 -34.660156 52.75 -30.671875 C 49.664062 -26.691406 45.53125 -24.242188 40.34375 -23.328125 L 58.953125 0 L 38.96875 0 L 23.140625 -22.125 Z M 40.625 -43.875 C 40.625 -46.769531 39.617188 -49.035156 37.609375 -50.671875 C 35.609375 -52.304688 32.941406 -53.125 29.609375 -53.125 L 22.953125 -53.125 L 22.953125 -34.0625 L 29.4375 -34.0625 C 32.945312 -34.0625 35.6875 -34.894531 37.65625 -36.5625 C 39.632812 -38.226562 40.625 -40.664062 40.625 -43.875 Z M 40.625 -43.875 "/></g></g></g></g></g></svg>