<svg xmlns="http://www.w3.org/2000/svg" xmlns:xlink="http://www.w3.org/1999/xlink" width="500" zoomAndPan="magnify" viewBox="0 0 375 374.999991" height="500" preserveAspectRatio="xMidYMid meet" version="1.0"><defs><clipPath id="7dd3590cdb"><path d="M 131 93.941406 L 244 93.941406 L 244 120 L 131 120 Z M 131 93.941406 " clip-rule="nonzero"/></clipPath><clipPath id="accb292664"><path d="M 87.707031 130 L 151 130 L 151 156 L 87.707031 156 Z M 87.707031 130 " clip-rule="nonzero"/></clipPath><clipPath id="827d894b2c"><path d="M 87.707031 130 L 287.207031 130 L 287.207031 183 L 87.707031 183 Z M 87.707031 130 " clip-rule="nonzero"/></clipPath><clipPath id="e543eab487"><path d="M 120 237 L 260 237 L 260 280.691406 L 120 280.691406 Z M 120 237 " clip-rule="nonzero"/></clipPath><clipPath id="cb10940c73"><path d="M 198 202 L 287.207031 202 L 287.207031 240 L 198 240 Z M 198 202 " clip-rule="nonzero"/></clipPath><clipPath id="8e48a84d69"><path d="M 87.707031 175 L 287.207031 175 L 287.207031 229 L 87.707031 229 Z M 87.707031 175 " clip-rule="nonzero"/></clipPath><clipPath id="89f93c4410"><path d="M 297 86.507812 L 344.738281 86.507812 L 344.738281 288.257812 L 297 288.257812 Z M 297 86.507812 " clip-rule="nonzero"/></clipPath><clipPath id="493ce08b8b"><path d="M 30.257812 86.742188 L 78 86.742188 L 78 288.492188 L 30.257812 288.492188 Z M 30.257812 86.742188 " clip-rule="nonzero"/></clipPath></defs><g clip-path="url(#7dd3590cdb)"><path fill="#545454" d="M 144.808594 98.375 C 149.492188 98.375 153.300781 102.1875 153.300781 106.867188 C 153.300781 111.550781 149.492188 115.359375 144.808594 115.359375 C 140.125 115.359375 136.316406 111.550781 136.316406 106.867188 C 136.316406 102.1875 140.125 98.375 144.808594 98.375 Z M 230.183594 98.375 C 234.867188 98.375 238.675781 102.1875 238.675781 106.867188 C 238.675781 111.550781 234.867188 115.359375 230.183594 115.359375 C 225.503906 115.359375 221.691406 111.550781 221.691406 106.867188 C 221.691406 102.1875 225.503906 98.375 230.183594 98.375 Z M 144.808594 119.785156 C 151.175781 119.785156 156.480469 115.152344 157.53125 109.082031 L 217.460938 109.082031 C 218.515625 115.152344 223.816406 119.785156 230.183594 119.785156 C 237.308594 119.785156 243.101562 113.988281 243.101562 106.867188 C 243.101562 99.746094 237.308594 93.949219 230.183594 93.949219 C 223.816406 93.949219 218.515625 98.582031 217.460938 104.65625 L 157.53125 104.65625 C 156.480469 98.582031 151.175781 93.949219 144.808594 93.949219 C 137.6875 93.949219 131.890625 99.746094 131.890625 106.867188 C 131.890625 113.988281 137.6875 119.785156 144.808594 119.785156 " fill-opacity="1" fill-rule="nonzero"/></g><g clip-path="url(#accb292664)"><path fill="#545454" d="M 100.675781 134.574219 C 105.355469 134.574219 109.164062 138.386719 109.164062 143.066406 C 109.164062 147.75 105.355469 151.5625 100.675781 151.5625 C 95.992188 151.5625 92.179688 147.75 92.179688 143.066406 C 92.179688 138.386719 95.992188 134.574219 100.675781 134.574219 Z M 100.675781 155.984375 C 107.042969 155.984375 112.34375 151.351562 113.398438 145.28125 L 148.050781 145.28125 C 149.273438 145.28125 150.265625 144.289062 150.265625 143.066406 C 150.265625 141.84375 149.273438 140.855469 148.050781 140.855469 L 113.398438 140.855469 C 112.34375 134.78125 107.042969 130.148438 100.675781 130.148438 C 93.550781 130.148438 87.753906 135.945312 87.753906 143.066406 C 87.753906 150.191406 93.550781 155.984375 100.675781 155.984375 " fill-opacity="1" fill-rule="nonzero"/></g><g clip-path="url(#827d894b2c)"><path fill="#545454" d="M 274.320312 134.574219 C 279.003906 134.574219 282.8125 138.386719 282.8125 143.066406 C 282.8125 147.75 279.003906 151.5625 274.320312 151.5625 C 269.640625 151.5625 265.828125 147.75 265.828125 143.066406 C 265.828125 138.386719 269.640625 134.574219 274.320312 134.574219 Z M 89.96875 182.203125 L 163.753906 182.203125 C 164.480469 182.203125 165.160156 181.847656 165.574219 181.25 L 190.449219 145.28125 L 261.597656 145.28125 C 262.648438 151.351562 267.953125 155.984375 274.320312 155.984375 C 281.441406 155.984375 287.238281 150.191406 287.238281 143.066406 C 287.238281 135.945312 281.441406 130.148438 274.320312 130.148438 C 267.953125 130.148438 262.648438 134.78125 261.597656 140.855469 L 189.292969 140.855469 C 188.566406 140.855469 187.882812 141.210938 187.46875 141.808594 L 162.59375 177.777344 L 89.96875 177.777344 C 88.746094 177.777344 87.753906 178.769531 87.753906 179.992188 C 87.753906 181.214844 88.746094 182.203125 89.96875 182.203125 " fill-opacity="1" fill-rule="nonzero"/></g><g clip-path="url(#e543eab487)"><path fill="#545454" d="M 246.699219 276.621094 C 242.015625 276.621094 238.207031 272.8125 238.207031 268.132812 C 238.207031 263.449219 242.015625 259.636719 246.699219 259.636719 C 251.378906 259.636719 255.1875 263.449219 255.1875 268.132812 C 255.1875 272.8125 251.378906 276.621094 246.699219 276.621094 Z M 246.699219 255.210938 C 240.328125 255.210938 235.027344 259.84375 233.972656 265.917969 L 202.890625 265.917969 L 175.921875 237.710938 C 175.503906 237.277344 174.925781 237.027344 174.320312 237.027344 L 122.734375 237.027344 C 121.511719 237.027344 120.523438 238.019531 120.523438 239.242188 C 120.523438 240.464844 121.511719 241.453125 122.734375 241.453125 L 173.375 241.453125 L 200.347656 269.660156 C 200.761719 270.097656 201.339844 270.34375 201.945312 270.34375 L 233.972656 270.34375 C 235.027344 276.414062 240.328125 281.046875 246.699219 281.046875 C 253.820312 281.046875 259.613281 275.253906 259.613281 268.132812 C 259.613281 261.007812 253.820312 255.210938 246.699219 255.210938 " fill-opacity="1" fill-rule="nonzero"/></g><g clip-path="url(#cb10940c73)"><path fill="#545454" d="M 274.320312 223.601562 C 269.640625 223.601562 265.828125 219.792969 265.828125 215.113281 C 265.828125 210.429688 269.640625 206.621094 274.320312 206.621094 C 279.003906 206.621094 282.8125 210.429688 282.8125 215.113281 C 282.8125 219.792969 279.003906 223.601562 274.320312 223.601562 Z M 274.320312 202.195312 C 267.953125 202.195312 262.648438 206.828125 261.597656 212.898438 L 217.445312 212.898438 C 216.746094 212.898438 216.089844 213.226562 215.667969 213.789062 L 199.074219 236.035156 C 198.347656 237.015625 198.546875 238.398438 199.527344 239.132812 C 199.925781 239.425781 200.390625 239.570312 200.847656 239.570312 C 201.523438 239.570312 202.191406 239.261719 202.625 238.679688 L 218.554688 217.324219 L 261.597656 217.324219 C 262.648438 223.394531 267.953125 228.027344 274.320312 228.027344 C 281.441406 228.027344 287.238281 222.234375 287.238281 215.113281 C 287.238281 207.988281 281.441406 202.195312 274.320312 202.195312 " fill-opacity="1" fill-rule="nonzero"/></g><g clip-path="url(#8e48a84d69)"><path fill="#545454" d="M 100.675781 223.601562 C 95.992188 223.601562 92.179688 219.792969 92.179688 215.113281 C 92.179688 210.429688 95.992188 206.621094 100.675781 206.621094 C 105.355469 206.621094 109.164062 210.429688 109.164062 215.113281 C 109.164062 219.792969 105.355469 223.601562 100.675781 223.601562 Z M 285.023438 175.972656 L 211.238281 175.972656 C 210.511719 175.972656 209.832031 176.328125 209.417969 176.929688 L 184.542969 212.898438 L 113.398438 212.898438 C 112.34375 206.828125 107.042969 202.195312 100.675781 202.195312 C 93.550781 202.195312 87.753906 207.988281 87.753906 215.113281 C 87.753906 222.234375 93.550781 228.027344 100.675781 228.027344 C 107.042969 228.027344 112.34375 223.394531 113.398438 217.324219 L 185.703125 217.324219 C 186.429688 217.324219 187.109375 216.96875 187.523438 216.371094 L 212.398438 180.398438 L 285.023438 180.398438 C 286.246094 180.398438 287.238281 179.410156 287.238281 178.1875 C 287.238281 176.964844 286.246094 175.972656 285.023438 175.972656 " fill-opacity="1" fill-rule="nonzero"/></g><g clip-path="url(#89f93c4410)"><path fill="#545454" d="M 297.214844 283.382812 L 297.214844 287.570312 C 305.757812 287.734375 315.34375 287.894531 325.859375 288.054688 C 328.476562 288.09375 331.175781 288.136719 333.875 288.175781 C 335.246094 288.175781 336.617188 288.214844 338.027344 288.214844 C 339.195312 288.214844 340.363281 288.214844 341.570312 288.257812 C 342.214844 288.257812 342.859375 288.257812 343.546875 288.257812 L 344.59375 288.257812 L 344.59375 287.328125 C 344.59375 285.113281 344.554688 282.898438 344.554688 280.640625 C 344.554688 279.191406 344.554688 277.742188 344.554688 276.292969 C 344.554688 273.351562 344.554688 270.367188 344.554688 267.347656 C 344.59375 243.175781 344.59375 216.101562 344.632812 187.5 C 344.59375 158.933594 344.59375 131.863281 344.554688 107.648438 C 344.554688 104.628906 344.554688 101.648438 344.554688 98.707031 C 344.554688 97.257812 344.554688 95.804688 344.554688 94.355469 C 344.554688 92.097656 344.59375 89.882812 344.59375 87.667969 L 344.59375 86.742188 L 343.546875 86.742188 C 342.902344 86.742188 342.257812 86.742188 341.570312 86.742188 C 340.402344 86.742188 339.234375 86.742188 338.027344 86.78125 C 336.617188 86.78125 335.246094 86.820312 333.875 86.820312 C 331.136719 86.863281 328.476562 86.902344 325.859375 86.941406 C 315.386719 87.105469 305.757812 87.265625 297.214844 87.425781 L 297.214844 91.617188 C 305.757812 91.777344 315.34375 91.9375 325.859375 92.097656 C 328.476562 92.140625 331.175781 92.179688 333.875 92.21875 C 335.246094 92.21875 336.617188 92.261719 338.027344 92.261719 L 338.953125 92.261719 C 338.953125 92.261719 338.953125 92.300781 338.953125 92.339844 L 338.914062 92.664062 L 338.914062 93.148438 C 338.914062 93.507812 338.914062 93.871094 338.871094 94.234375 C 338.832031 95.683594 338.792969 97.136719 338.792969 98.585938 C 338.75 101.527344 338.671875 104.507812 338.628906 107.527344 C 338.226562 131.742188 338.066406 158.8125 338.066406 187.417969 C 338.066406 216.023438 338.226562 243.09375 338.628906 267.308594 C 338.671875 270.328125 338.75 273.308594 338.792969 276.25 C 338.832031 277.703125 338.871094 279.191406 338.871094 280.601562 C 338.871094 280.964844 338.871094 281.328125 338.914062 281.691406 L 338.914062 282.171875 L 338.953125 282.496094 C 338.953125 282.535156 338.953125 282.574219 338.953125 282.574219 L 338.027344 282.574219 C 336.617188 282.574219 335.246094 282.617188 333.875 282.617188 C 331.136719 282.65625 328.476562 282.695312 325.859375 282.738281 C 315.34375 283.058594 305.757812 283.21875 297.214844 283.382812 Z M 297.214844 283.382812 " fill-opacity="1" fill-rule="nonzero"/></g><g clip-path="url(#493ce08b8b)"><path fill="#545454" d="M 77.777344 91.617188 L 77.777344 87.425781 C 69.238281 87.265625 59.648438 87.105469 49.132812 86.941406 C 46.515625 86.902344 43.816406 86.863281 41.117188 86.820312 C 39.746094 86.820312 38.378906 86.78125 36.96875 86.78125 C 35.796875 86.78125 34.628906 86.78125 33.421875 86.742188 C 32.777344 86.742188 32.132812 86.742188 31.449219 86.742188 L 30.398438 86.742188 L 30.398438 87.667969 C 30.398438 89.882812 30.441406 92.097656 30.441406 94.355469 C 30.441406 95.804688 30.441406 97.257812 30.441406 98.707031 C 30.441406 101.648438 30.441406 104.628906 30.441406 107.648438 C 30.398438 131.820312 30.398438 158.894531 30.359375 187.5 C 30.398438 216.0625 30.398438 243.136719 30.441406 267.347656 C 30.441406 270.367188 30.441406 273.351562 30.441406 276.292969 C 30.441406 277.742188 30.441406 279.191406 30.441406 280.640625 C 30.441406 282.898438 30.398438 285.113281 30.398438 287.328125 L 30.398438 288.257812 L 31.449219 288.257812 C 32.09375 288.257812 32.738281 288.257812 33.421875 288.257812 C 34.589844 288.257812 35.757812 288.257812 36.96875 288.214844 C 38.378906 288.214844 39.746094 288.175781 41.117188 288.175781 C 43.855469 288.136719 46.515625 288.09375 49.132812 288.054688 C 59.609375 287.894531 69.238281 287.734375 77.777344 287.570312 L 77.777344 283.382812 C 69.238281 283.21875 59.648438 283.058594 49.132812 282.898438 C 46.515625 282.859375 43.816406 282.816406 41.117188 282.777344 C 39.746094 282.777344 38.378906 282.738281 36.96875 282.738281 L 36.039062 282.738281 C 36.039062 282.738281 36.039062 282.695312 36.039062 282.65625 L 36.082031 282.335938 L 36.082031 281.851562 C 36.082031 281.488281 36.082031 281.125 36.121094 280.761719 C 36.160156 279.3125 36.203125 277.863281 36.203125 276.414062 C 36.242188 273.472656 36.324219 270.488281 36.363281 267.46875 C 36.765625 243.257812 36.925781 216.183594 36.925781 187.578125 C 36.925781 158.976562 36.765625 131.902344 36.363281 107.691406 C 36.324219 104.667969 36.242188 101.6875 36.203125 98.746094 C 36.160156 97.296875 36.121094 95.804688 36.121094 94.394531 C 36.121094 94.03125 36.121094 93.671875 36.082031 93.308594 L 36.082031 92.824219 L 36.039062 92.503906 C 36.039062 92.460938 36.039062 92.421875 36.039062 92.421875 L 36.96875 92.421875 C 38.378906 92.421875 39.746094 92.382812 41.117188 92.382812 C 43.855469 92.339844 46.515625 92.300781 49.132812 92.261719 C 59.648438 91.9375 69.238281 91.777344 77.777344 91.617188 Z M 77.777344 91.617188 " fill-opacity="1" fill-rule="nonzero"/></g></svg>